<svg width="36" height="35" viewBox="0 0 36 35" fill="none" xmlns="http://www.w3.org/2000/svg">
<path d="M35.1286 17.5643C35.1286 7.86388 27.2647 0 17.5643 0C7.86388 0 0 7.86388 0 17.5643C0 25.8012 5.67116 32.7131 13.3215 34.6115V22.9319H9.6997V17.5643H13.3215V15.2514C13.3215 9.27324 16.0271 6.5023 21.8963 6.5023C23.0092 6.5023 24.9293 6.7208 25.7148 6.9386V11.8039C25.3003 11.7603 24.5802 11.7386 23.6858 11.7386C20.8059 11.7386 19.6931 12.8297 19.6931 15.6659V17.5643H25.4303L24.4446 22.9319H19.6931V35C28.3902 33.9497 35.1293 26.5446 35.1293 17.5643H35.1286Z" fill="black"/>
</svg>
